<?xml version="1.0" standalone="no"?>
<!DOCTYPE svg PUBLIC "-//W3C//DTD SVG 20010904//EN"
 "http://www.w3.org/TR/2001/REC-SVG-20010904/DTD/svg10.dtd">
<svg version="1.0" xmlns="http://www.w3.org/2000/svg"
 width="450.000000pt" height="450.000000pt" viewBox="0 0 450.000000 450.000000"
 preserveAspectRatio="xMidYMid meet">
<metadata>
Created by potrace 1.14, written by Peter Selinger 2001-2017
</metadata>
<g transform="translate(0.000000,450.000000) scale(0.100000,-0.100000)"
fill="#000000" stroke="none">
<path d="M3720 4477 c0 -30 -39 -67 -71 -67 -29 0 -76 -29 -48 -30 9 0 24 -16
35 -36 13 -25 33 -42 62 -55 23 -10 42 -23 42 -28 0 -5 10 -11 23 -13 18 -2
22 -10 25 -43 2 -35 -3 -46 -39 -85 l-40 -45 -81 -1 -80 0 -36 -41 c-29 -31
-49 -43 -90 -53 -39 -9 -57 -9 -64 -2 -8 8 -15 6 -24 -6 -12 -16 -13 -16 -20
2 -5 13 -3 21 5 24 9 3 8 7 -2 16 -24 19 -29 60 -9 82 38 42 45 54 32 54 -6 0
-28 -18 -47 -40 -20 -22 -44 -40 -53 -40 -27 0 -54 -25 -47 -44 6 -16 8 -16
32 0 14 9 26 12 27 8 0 -5 2 -13 3 -19 2 -5 3 -14 4 -20 1 -5 6 -3 11 5 8 13
10 12 10 -3 0 -19 -18 -59 -31 -67 -13 -9 -70 -140 -65 -148 3 -5 -6 -20 -20
-35 -14 -15 -20 -27 -14 -27 5 0 10 -5 10 -11 0 -6 -8 -8 -17 -5 -21 7 -43
-32 -43 -75 0 -14 -5 -40 -11 -57 -10 -28 -8 -35 22 -72 27 -33 33 -48 30 -80
-3 -44 22 -84 33 -54 3 9 6 26 6 39 0 13 5 25 11 27 17 6 0 56 -18 54 -9 0
-18 5 -20 12 -3 9 2 12 13 10 15 -2 20 5 24 32 8 58 38 98 74 98 54 0 83 18
91 53 4 18 16 41 26 53 13 13 16 23 9 30 -14 14 -12 29 3 23 14 -5 67 29 67
43 0 6 15 29 32 52 34 45 43 47 144 39 8 0 23 -19 31 -41 9 -22 20 -40 25 -40
4 0 8 -7 8 -15 0 -8 -4 -15 -8 -15 -4 0 -14 -17 -21 -37 -7 -21 -24 -52 -37
-70 -29 -39 -31 -57 -4 -50 24 6 26 -5 5 -23 -23 -19 -17 -115 11 -160 11 -19
24 -45 28 -57 11 -35 26 -27 26 13 0 23 -6 42 -17 50 -17 12 -16 13 7 22 31
12 107 8 141 -8 61 -28 72 -94 50 -296 -10 -93 -10 -146 -2 -230 6 -60 9 -130
6 -156 -3 -34 -1 -48 8 -48 9 0 9 -2 0 -8 -9 -5 -14 -57 -18 -166 -4 -123 -9
-165 -22 -187 -14 -23 -15 -33 -5 -54 23 -50 13 -104 -40 -208 -5 -10 -8 -79
-6 -155 1 -83 -2 -145 -9 -157 -36 -67 -54 -115 -49 -131 3 -11 6 -43 7 -72 1
-29 8 -56 14 -60 28 -17 47 -62 41 -96 -5 -27 -3 -37 11 -45 10 -6 13 -11 7
-11 -6 0 -16 -19 -23 -42 -7 -24 -18 -56 -25 -72 -11 -26 -8 -36 29 -110 67
-131 104 -230 124 -328 15 -69 25 -96 42 -108 15 -12 20 -23 15 -36 -4 -11
-10 -14 -14 -8 -4 6 -14 13 -23 16 -11 4 -19 24 -23 55 -13 85 -46 202 -77
271 -36 80 -121 213 -166 262 -18 19 -33 38 -33 42 0 3 -26 21 -57 39 -32 18
-64 39 -71 46 -17 16 -34 17 -50 1 -9 -9 -19 -5 -42 19 -35 36 -114 75 -149
75 -13 0 -43 15 -67 33 -28 22 -50 31 -63 28 -11 -3 -40 4 -64 16 -24 12 -60
21 -80 21 -26 0 -42 7 -55 22 -36 44 -53 58 -71 58 -11 0 -21 -5 -23 -12 -3
-8 -16 -5 -41 11 l-37 23 0 -26 c0 -40 -18 -31 -30 17 -21 80 -33 112 -58 149
-25 38 -42 48 -42 26 -1 -63 -25 -157 -57 -224 -33 -69 -38 -90 -41 -166 -2
-49 -8 -88 -12 -88 -4 0 -10 -9 -13 -20 -6 -25 -37 -16 -37 10 0 32 -12 50
-32 50 -15 0 -18 -5 -13 -22 4 -16 3 -19 -3 -9 -7 9 -11 10 -15 2 -3 -7 -5 -7
-3 1 2 7 -3 18 -9 23 -7 6 -16 24 -19 40 -4 18 -3 25 2 17 10 -15 42 -5 42 13
0 17 -25 26 -38 13 -13 -13 -15 -9 -48 110 -4 14 -56 16 -103 2 -28 -8 -45 -5
-103 20 -80 34 -131 67 -123 81 4 5 1 9 -5 9 -7 0 -9 7 -6 16 4 10 -5 29 -24
50 -32 37 -40 67 -15 58 9 -4 19 3 26 20 l12 26 15 -30 c14 -29 32 -39 80 -43
12 0 25 -10 28 -20 4 -13 14 -17 34 -15 15 1 35 -3 44 -11 17 -14 66 -8 66 9
0 6 5 10 11 10 5 0 7 -5 4 -10 -7 -11 3 -16 58 -25 33 -5 37 -4 37 15 0 11 7
23 16 27 13 5 12 8 -5 25 -25 23 -27 38 -5 38 10 0 14 -6 11 -14 -7 -17 16
-28 38 -20 17 7 20 24 5 24 -5 0 -10 9 -10 20 0 11 5 20 11 20 6 0 24 11 41
25 16 14 35 25 42 25 17 0 111 133 135 191 3 9 31 44 61 78 54 61 80 113 60
119 -6 2 -10 11 -11 20 0 10 -3 12 -5 5 -4 -8 -12 -9 -27 -3 -31 12 -56 20
-64 19 -4 0 -11 9 -15 22 -12 30 1 89 19 89 15 0 14 10 -3 90 -8 37 -103 138
-158 167 -28 14 -30 14 -46 -6 -9 -13 -22 -20 -31 -16 -8 3 -32 -1 -52 -10
-46 -19 -100 -19 -135 -1 -16 8 -35 14 -42 14 -57 -3 -80 3 -80 21 0 25 33 36
59 19 27 -17 43 -1 47 49 1 21 5 57 9 81 6 38 4 44 -14 49 -16 4 -21 13 -20
37 l0 31 11 -25 11 -25 4 23 c6 32 -16 92 -33 92 -8 0 -13 3 -12 8 4 20 -23
60 -49 70 -67 28 -132 32 -201 15 -56 -14 -74 -24 -115 -66 l-49 -50 8 34 c4
19 8 45 8 59 1 14 6 28 11 32 6 4 2 8 -7 8 -11 0 -18 -8 -18 -19 0 -11 -4 -23
-10 -26 -5 -3 -10 1 -10 9 0 9 -4 16 -10 16 -16 0 -12 -91 6 -111 8 -9 16 -30
17 -45 1 -17 11 -33 22 -39 13 -6 19 -18 17 -31 -2 -17 3 -23 25 -27 15 -3 30
-1 34 4 6 11 189 0 189 -12 0 -14 -71 -31 -106 -25 -37 8 -48 -8 -11 -18 59
-16 152 5 206 46 13 10 33 18 45 18 19 0 21 -5 21 -63 l0 -62 -34 -3 c-58 -6
-111 -47 -225 -173 -38 -42 -40 -47 -37 -102 2 -32 6 -84 11 -115 7 -53 0 -92
-18 -92 -4 0 -15 12 -25 28 -9 15 -24 36 -32 46 -15 20 -15 20 -30 0 -14 -18
-15 -18 -42 14 -16 17 -34 32 -40 32 -6 0 -13 12 -16 28 -3 15 -9 35 -12 45
-5 12 -2 17 11 17 18 1 18 1 0 15 -15 11 -19 28 -21 72 0 32 -4 67 -9 78 -4
11 -11 30 -16 41 -5 13 -4 38 4 65 9 29 10 55 3 83 -19 88 -19 125 3 198 12
40 26 84 31 98 6 13 13 56 16 95 6 73 23 115 48 115 8 0 15 4 15 8 0 5 25 21
56 36 46 23 58 25 66 14 7 -10 11 -10 22 5 7 9 17 17 22 17 4 0 19 11 33 24
15 14 57 41 95 60 64 34 75 36 160 36 75 0 95 -4 116 -20 17 -13 41 -20 76
-20 64 0 160 -51 170 -90 4 -14 21 -41 38 -60 18 -19 37 -46 43 -60 27 -64 32
-81 27 -95 -4 -8 1 -26 10 -40 9 -13 16 -34 16 -45 0 -12 7 -34 15 -49 8 -16
19 -53 24 -82 37 -212 36 -208 47 -164 4 15 2 31 -5 38 -6 6 -11 25 -11 42 0
21 3 26 9 16 6 -9 11 4 16 40 4 30 14 65 22 78 26 40 13 201 -21 276 -16 33
-32 62 -36 65 -5 3 -12 18 -15 33 -4 15 -11 27 -16 27 -5 0 -9 9 -9 20 0 11
-5 20 -10 20 -6 0 -15 11 -20 25 -5 14 -17 28 -25 31 -8 4 -15 12 -15 19 0 7
-7 18 -16 26 -13 10 -17 10 -24 -1 -5 -8 -13 -11 -17 -6 -4 5 -2 11 5 13 27
10 10 24 -25 21 -33 -2 -38 0 -38 19 0 30 -112 123 -149 123 -7 0 -16 7 -20
15 -3 8 -16 15 -30 15 -14 0 -28 5 -31 10 -10 17 -35 11 -35 -7 0 -15 -2 -16
-10 -3 -8 12 -11 13 -19 1 -7 -11 -9 -11 -14 0 -5 12 -6 12 -6 0 -1 -11 -4
-11 -15 -2 -18 15 -109 4 -99 -12 6 -10 -26 -6 -61 8 -13 6 -17 5 -13 -2 5 -8
-16 -14 -60 -19 -38 -4 -84 -15 -103 -25 -19 -11 -38 -19 -43 -19 -14 0 -112
-71 -141 -103 -16 -18 -40 -56 -53 -84 -14 -29 -33 -59 -43 -66 -11 -7 -24
-24 -30 -38 -5 -13 -21 -41 -35 -61 -19 -29 -22 -38 -10 -38 12 0 11 -9 -9
-53 -13 -30 -26 -84 -29 -127 -8 -84 6 -228 24 -262 7 -13 13 -58 14 -101 1
-43 7 -83 14 -90 8 -8 11 -4 12 16 3 59 11 66 33 33 12 -19 14 -31 6 -51 -6
-15 -10 -32 -9 -38 0 -7 4 -4 8 6 4 10 11 19 15 20 11 2 11 0 20 -122 4 -52
13 -106 20 -120 7 -14 16 -45 19 -68 4 -38 28 -101 59 -157 21 -38 29 -83 34
-190 4 -77 2 -106 -5 -101 -6 3 -9 10 -6 15 3 5 -6 12 -20 16 -17 4 -24 11
-21 20 17 44 -74 -14 -126 -80 -61 -77 -135 -156 -147 -156 -6 0 -8 -7 -5 -15
7 -19 -5 -19 -31 -2 -11 7 -42 22 -69 32 l-49 18 -38 -44 c-37 -43 -38 -44
-101 -44 -40 0 -74 -6 -93 -17 -160 -88 -203 -107 -237 -108 -29 0 -38 -5 -44
-22 -3 -13 -15 -35 -25 -50 -11 -14 -37 -80 -60 -145 -75 -221 -72 -198 -66
-508 4 -234 2 -285 -10 -309 -12 -23 -12 -34 -3 -57 9 -20 10 -57 5 -122 -9
-121 -9 -175 -1 -212 l7 -30 -15 25 c-8 14 -15 34 -16 46 0 11 -11 31 -24 44
l-25 22 1 -23 c0 -13 4 -33 8 -44 28 -72 33 -108 23 -147 -10 -36 -9 -44 8
-61 10 -12 19 -24 19 -29 0 -4 7 -8 16 -8 8 0 13 4 10 9 -4 5 0 11 6 14 10 3
9 12 -5 37 -9 17 -16 50 -16 73 l2 42 6 -47 c4 -26 17 -61 29 -77 12 -17 22
-35 22 -41 0 -7 228 -10 721 -10 640 0 720 2 709 15 -9 11 -10 18 -1 29 15 18
5 43 -20 49 -16 4 -18 1 -13 -19 8 -31 -9 -31 -25 0 -11 19 -10 27 0 45 8 11
21 21 29 21 13 0 13 -1 0 -10 -13 -8 -12 -10 3 -10 16 0 21 14 19 50 0 8 8 20
19 28 13 9 18 20 14 32 -4 13 2 24 20 36 14 9 29 14 33 10 3 -4 0 -11 -8 -16
-12 -8 -12 -10 3 -10 11 0 21 9 24 20 6 21 11 22 109 24 66 2 61 5 111 -79 17
-27 16 -114 -2 -145 -8 -14 -14 -35 -15 -47 l0 -23 948 0 947 0 2 27 1 28 -20
-24 -19 -25 6 27 c5 19 1 34 -14 53 -12 15 -21 39 -21 55 0 21 -5 28 -22 31
-14 2 -22 9 -20 18 2 8 -5 20 -14 27 -10 7 -14 13 -10 13 5 0 3 7 -4 15 -7 8
-10 21 -7 29 3 8 2 16 -2 18 -5 2 -18 20 -29 41 -17 33 -21 36 -26 19 -5 -15
-18 -21 -54 -24 -29 -3 -51 0 -57 7 -5 6 -16 10 -22 8 -7 -3 -13 0 -13 6 0 6
6 11 14 11 7 0 25 11 40 25 15 14 36 25 47 25 19 0 25 11 13 23 -3 3 -28 -3
-55 -14 -56 -21 -62 -23 -55 -10 3 5 -1 11 -9 15 -8 3 -15 12 -15 21 0 10 -10
15 -27 15 -26 1 -25 2 12 20 72 33 91 35 118 7 14 -13 32 -27 41 -30 14 -6 15
-4 4 14 -7 11 -29 50 -49 87 -29 52 -43 68 -66 74 -20 5 -33 16 -37 30 -7 29
10 47 18 20 7 -20 37 -25 61 -10 20 12 75 19 95 13 19 -6 29 -35 12 -35 -4 0
-8 -19 -8 -41 -1 -40 -18 -64 -37 -52 -18 11 6 -43 29 -65 23 -22 24 -22 24
-3 0 11 -9 25 -21 31 -11 7 -18 14 -16 17 3 2 15 -1 27 -7 18 -9 25 -8 41 6
10 9 21 15 24 12 3 -3 -1 -11 -10 -18 -18 -15 -20 -34 -2 -25 6 4 3 -1 -7 -9
-16 -13 -17 -19 -7 -29 10 -10 15 -9 25 5 17 23 40 7 33 -24 -4 -16 -1 -27 12
-35 19 -12 18 -15 25 50 4 42 27 74 45 63 6 -4 11 -16 11 -26 0 -10 5 -22 10
-25 6 -3 10 -17 10 -31 0 -13 6 -24 13 -24 6 -1 2 -9 -10 -19 -24 -20 -31 -55
-13 -66 6 -3 10 -24 10 -46 0 -39 0 -39 20 -19 11 11 30 20 42 19 l23 0 -22
-11 c-38 -18 -22 -58 23 -58 12 0 26 -6 31 -12 14 -18 12 -50 -2 -44 -9 3 -9
-5 1 -32 16 -45 17 -87 4 -113 -8 -15 -7 -19 4 -19 13 0 15 30 16 206 0 202 0
205 -20 199 -13 -4 -20 -2 -18 5 2 7 -3 15 -9 17 -7 3 -13 0 -13 -6 0 -6 -4
-11 -10 -11 -14 0 -12 27 3 39 59 49 67 59 67 95 0 45 -17 53 -71 37 -49 -15
-61 -7 -78 48 -6 22 -17 43 -23 47 -6 4 -43 8 -81 9 -52 2 -74 7 -82 19 -7 10
-19 14 -29 10 -10 -4 -16 -1 -16 9 0 8 -7 18 -16 21 -9 4 -13 13 -10 24 4 10
-1 27 -9 38 -19 25 -19 48 0 64 21 18 18 44 -6 55 -27 13 -80 85 -80 111 -1
27 29 105 45 118 22 18 28 113 9 149 -13 26 -14 39 -4 77 6 25 14 78 16 118 5
73 20 112 42 112 7 0 13 6 13 13 0 8 18 31 40 53 27 26 40 48 40 67 0 27 -13
36 -25 17 -10 -16 -61 -12 -76 7 -8 9 -15 28 -16 42 -4 58 -14 104 -29 126 -9
13 -17 32 -19 42 -2 10 -4 18 -5 18 -13 0 -29 451 -19 540 24 231 30 274 48
325 11 30 25 96 31 145 13 110 18 125 35 125 24 0 30 42 28 200 -2 145 -1 156
19 187 55 80 133 32 159 -97 6 -30 16 -70 22 -87 10 -31 14 -33 57 -33 25 0
56 -7 68 -16 l22 -15 0 555 0 554 -40 7 c-53 9 -65 26 -42 56 48 63 69 59
-333 59 l-365 0 0 -23z m100 -267 c0 -5 -2 -10 -4 -10 -3 0 -8 5 -11 10 -3 6
-1 10 4 10 6 0 11 -4 11 -10z m-345 -281 c11 -17 -1 -21 -15 -4 -8 9 -8 15 -2
15 6 0 14 -5 17 -11z m-1164 -106 c13 -16 12 -17 -3 -4 -10 7 -18 15 -18 17 0
8 8 3 21 -13z m949 -12 c0 -6 -4 -13 -10 -16 -5 -3 -10 1 -10 9 0 9 5 16 10
16 6 0 10 -4 10 -9z m-47 -87 c-4 -12 -8 -13 -14 -3 -9 15 -2 32 11 24 5 -3 6
-13 3 -21z m-44 -59 c0 -11 -3 -14 -6 -7 -2 6 -11 12 -19 12 -8 0 -14 4 -14 9
0 6 9 9 20 8 13 -1 20 -8 19 -22z m-9 -35 c0 -5 -4 -10 -10 -10 -5 0 -10 5
-10 10 0 6 5 10 10 10 6 0 10 -4 10 -10z m-20 -90 c0 -5 -4 -10 -10 -10 -5 0
-10 5 -10 10 0 6 5 10 10 10 6 0 10 -4 10 -10z m-320 -120 c13 0 17 -5 13 -20
-7 -26 -14 -25 -36 5 -10 15 -15 30 -10 38 5 9 8 7 11 -5 2 -10 12 -18 22 -18z
m-704 -315 c31 -20 32 -39 2 -29 -51 18 -172 5 -213 -22 -22 -14 -23 -14 -18
5 3 12 11 21 18 21 7 0 15 7 19 15 3 8 1 15 -4 15 -6 0 -10 4 -10 8 0 15 180
4 206 -13z m84 -104 c0 -17 -18 -31 -40 -31 -4 0 -3 11 3 25 14 29 37 33 37 6z
m1730 -221 c0 -5 -5 -10 -11 -10 -5 0 -7 5 -4 10 3 6 8 10 11 10 2 0 4 -4 4
-10z m-1458 -177 c26 -3 53 -12 59 -19 14 -17 4 -17 -61 -3 -25 5 -88 9 -142
9 -62 -1 -98 3 -103 10 -5 8 5 10 36 6 24 -3 60 -2 79 3 19 5 46 7 60 5 14 -3
46 -7 72 -11z m-284 -10 c-10 -2 -26 -2 -35 0 -10 3 -2 5 17 5 19 0 27 -2 18
-5z m280 -67 c30 -18 2 -50 -47 -53 -18 -1 -38 -6 -45 -11 -20 -16 -158 -7
-171 11 -8 12 -15 13 -22 6 -15 -15 -33 -3 -33 22 0 24 25 35 44 20 10 -9 16
-9 21 -1 5 8 10 8 20 0 8 -6 16 -7 19 -2 3 5 33 10 67 10 34 1 64 3 67 6 7 8
65 1 80 -8z m132 -11 c0 -8 -4 -23 -9 -33 -5 -9 -15 -36 -22 -59 -7 -24 -16
-43 -21 -43 -4 0 -8 -6 -8 -14 0 -19 -40 -43 -72 -43 -18 0 -33 8 -43 23 -8
13 -22 24 -30 24 -8 0 -15 3 -15 8 0 8 80 52 96 52 6 0 31 22 55 49 45 50 69
63 69 36z m-501 -99 c15 -16 38 -26 72 -30 l50 -7 -34 -23 c-19 -13 -40 -26
-48 -28 -19 -7 -49 9 -49 26 0 8 -7 19 -15 26 -16 13 -21 60 -7 60 5 0 19 -11
31 -24z m-169 -467 c12 -9 12 -10 -4 -5 -10 4 -25 1 -32 -5 -9 -7 -14 -8 -14
-1 0 9 14 19 30 21 3 0 12 -4 20 -10z m-23 -41 c-3 -8 -6 -5 -6 6 -1 11 2 17
5 13 3 -3 4 -12 1 -19z m446 -25 c-7 -2 -21 -2 -30 0 -10 3 -4 5 12 5 17 0 24
-2 18 -5z m207 -473 c0 -5 -5 -10 -11 -10 -5 0 -7 5 -4 10 3 6 8 10 11 10 2 0
4 -4 4 -10z m84 -397 c28 -10 60 -28 73 -41 19 -19 21 -26 11 -42 -25 -40
-201 -95 -236 -74 -10 6 -21 33 -26 62 -5 29 -13 52 -18 52 -4 0 -8 5 -8 10 0
6 3 9 8 9 12 -3 72 25 72 33 0 14 74 8 124 -9z m582 -213 c8 0 14 -9 14 -21 0
-17 4 -20 24 -15 14 3 28 2 31 -4 4 -6 -5 -10 -22 -9 -35 2 -94 16 -71 18 31
2 30 21 0 21 -32 0 -44 -16 -36 -47 6 -20 84 -49 84 -31 0 5 10 2 22 -6 31
-22 45 -20 25 2 -10 10 -14 22 -11 25 8 8 33 -23 34 -41 0 -13 -47 -9 -122 9
-32 8 -38 14 -44 46 -5 29 -3 39 12 50 10 7 25 11 32 8 8 -3 20 -5 28 -5z
m-503 -136 c35 -12 57 -28 78 -57 30 -41 37 -67 19 -67 -5 0 -10 -4 -10 -10 0
-5 3 -9 8 -7 4 1 8 -2 9 -8 2 -10 -18 -11 -45 -4 -9 3 -14 -11 -16 -49 -3 -52
-3 -53 26 -59 17 -3 26 -9 20 -15 -10 -10 -149 17 -168 33 -16 13 -34 4 -35
-19 -1 -10 -4 -7 -8 8 -5 14 -3 34 2 45 5 11 6 17 2 13 -5 -4 -14 -3 -21 3
-10 9 -15 7 -20 -5 -3 -9 -12 -16 -20 -16 -7 0 -20 -10 -30 -22 l-16 -23 5 23
c3 12 1 22 -4 22 -5 0 -9 44 -9 98 0 87 3 101 22 121 19 22 27 23 92 18 39 -3
93 -13 119 -23z m1131 -100 c22 -22 20 -39 -8 -58 -18 -12 -26 -12 -29 -3 -3
7 -6 4 -6 -6 -1 -14 -7 -16 -28 -11 -36 9 -42 14 -14 14 20 0 21 1 6 24 -16
24 -15 25 12 40 36 20 48 20 67 0z m-1017 -96 c-3 -8 -6 -5 -6 6 -1 11 2 17 5
13 3 -3 4 -12 1 -19z m856 -19 c8 -30 1 -42 -33 -58 -24 -10 -34 -10 -45 -1
-20 16 -19 22 8 53 27 32 63 35 70 6z m202 -29 c4 -6 11 -7 17 -4 6 4 14 1 18
-7 7 -10 11 -10 24 0 11 9 16 10 16 2 0 -13 -72 -81 -107 -99 -31 -17 -45 -12
-63 24 -8 16 -19 32 -24 36 -6 4 2 12 17 19 15 7 27 16 27 20 0 16 66 24 75 9z
m-1368 -32 c-3 -8 -6 -5 -6 6 -1 11 2 17 5 13 3 -3 4 -12 1 -19z m-891 -14
c60 -21 79 -47 77 -102 -3 -98 -12 -155 -26 -170 -8 -10 -17 -26 -19 -37 -5
-18 -6 -18 -16 5 -6 14 -11 20 -11 13 -1 -8 -7 -8 -25 0 -18 9 -22 15 -14 25
15 18 2 27 -18 12 -13 -11 -17 -11 -24 -1 -5 9 -19 11 -48 6 -53 -9 -63 9 -24
44 25 24 29 33 26 72 -1 24 -7 45 -12 47 -6 2 -8 12 -5 22 3 11 0 20 -6 20 -6
0 -11 -6 -11 -14 0 -8 -7 -17 -16 -20 -27 -10 -29 2 -3 22 21 18 22 21 7 36
-9 9 -23 16 -32 16 -16 0 -29 14 -20 23 11 10 179 -4 220 -19z m1034 -5 c0
-14 -16 -11 -29 5 -10 12 -8 13 8 9 12 -3 21 -9 21 -14z m1703 4 c-7 -2 -13
-12 -13 -20 0 -9 -3 -14 -6 -10 -10 10 4 37 18 36 10 0 10 -2 1 -6z m-3113 -7
c0 -3 -4 -8 -10 -11 -5 -3 -10 -1 -10 4 0 6 5 11 10 11 6 0 10 -2 10 -4z m73
-38 c-2 -5 -9 -8 -14 -8 -6 0 -7 5 -4 10 3 6 -3 10 -14 10 -28 0 -27 18 2 22
21 3 40 -18 30 -34z m71 36 c13 -5 14 -10 2 -32 -12 -24 -11 -29 10 -51 26
-27 25 -43 -1 -17 -9 9 -23 16 -31 16 -10 0 -14 9 -12 30 1 17 6 30 11 30 5 0
7 7 3 15 -6 17 -4 18 18 9z m2552 -66 c12 -15 13 -18 3 -10 -9 7 -24 10 -33 6
-9 -3 -16 -2 -16 4 0 6 6 13 13 15 6 3 12 6 13 6 0 1 9 -9 20 -21z m-2636 -8
c0 -5 -2 -10 -4 -10 -3 0 -8 5 -11 10 -3 6 -1 10 4 10 6 0 11 -4 11 -10z m170
-51 c-12 -21 -37 -35 -46 -26 -11 11 17 47 37 47 17 0 18 -3 9 -21z m1141 -76
c-13 -26 -14 -27 -21 -8 -8 24 10 59 24 45 6 -6 5 -20 -3 -37z m1505 13 c10
-8 16 -18 11 -22 -4 -4 -7 -2 -7 4 0 7 -11 12 -25 12 -14 0 -25 5 -25 10 0 14
23 12 46 -4z m-1286 -15 c0 -6 -4 -13 -10 -16 -5 -3 -10 1 -10 9 0 9 5 16 10
16 6 0 10 -4 10 -9z m-220 -45 c0 -3 -4 -8 -10 -11 -5 -3 -10 -1 -10 4 0 6 5
11 10 11 6 0 10 -2 10 -4z m260 -22 c0 -8 -4 -12 -10 -9 -5 3 -10 10 -10 16 0
5 5 9 10 9 6 0 10 -7 10 -16z m-210 -4 c0 -5 -2 -10 -4 -10 -3 0 -8 5 -11 10
-3 6 -1 10 4 10 6 0 11 -4 11 -10z m190 -52 c0 -9 6 -19 13 -21 9 -4 9 -6 0
-6 -16 -1 -43 39 -43 63 0 20 0 20 15 0 8 -10 15 -26 15 -36z m-280 22 c0 -5
-4 -10 -10 -10 -5 0 -10 5 -10 10 0 6 5 10 10 10 6 0 10 -4 10 -10z"/>
<path d="M2677 485 c-4 -8 -2 -17 3 -20 6 -4 10 3 10 14 0 25 -6 27 -13 6z"/>
<path d="M2661 434 c0 -11 3 -14 6 -6 3 7 2 16 -1 19 -3 4 -6 -2 -5 -13z"/>
<path d="M3484 4233 c-17 -17 -17 -18 10 -21 27 -3 56 12 56 29 0 16 -48 10
-66 -8z"/>
<path d="M2605 3700 c-3 -6 1 -7 9 -4 18 7 21 14 7 14 -6 0 -13 -4 -16 -10z"/>
<path d="M3122 3277 c3 -24 21 -27 26 -4 2 8 -4 17 -13 21 -13 4 -16 1 -13
-17z"/>
<path d="M1757 3243 c-12 -11 -8 -23 8 -23 8 0 15 7 15 15 0 16 -12 20 -23 8z"/>
<path d="M2485 3231 c-33 -4 -79 -17 -103 -29 -38 -20 -42 -25 -36 -50 4 -15
11 -32 15 -38 5 -6 6 -32 3 -58 -7 -47 -7 -47 20 -40 23 5 26 3 26 -20 0 -21
7 -30 35 -42 48 -20 155 -31 155 -15 0 6 -16 11 -39 11 -21 0 -43 6 -50 13 -8
11 -5 13 19 9 16 -2 49 4 74 13 26 10 56 15 71 11 39 -10 33 26 -11 62 -41 34
-94 52 -155 52 l-44 1 30 16 c24 13 40 14 90 6 52 -8 113 -2 134 14 19 14
-118 95 -156 91 -10 0 -45 -4 -78 -7z"/>
<path d="M2660 3110 c19 -13 30 -13 30 0 0 6 -10 10 -22 10 -19 0 -20 -2 -8
-10z"/>
<path d="M1730 3060 c0 -5 7 -10 16 -10 8 0 12 5 9 10 -3 6 -10 10 -16 10 -5
0 -9 -4 -9 -10z"/>
<path d="M1734 2686 c-7 -19 3 -36 22 -36 10 0 14 8 12 22 -4 26 -26 36 -34
14z"/>
<path d="M1620 2660 c0 -5 5 -10 11 -10 5 0 7 5 4 10 -3 6 -8 10 -11 10 -2 0
-4 -4 -4 -10z"/>
<path d="M1837 2623 c-13 -13 -7 -21 13 -16 11 3 17 9 14 14 -6 11 -18 12 -27
2z"/>
<path d="M4389 2016 c6 -7 9 -21 5 -30 -5 -12 0 -16 20 -16 21 0 26 5 26 24 0
13 6 27 13 29 6 3 -8 6 -32 6 -36 1 -41 -1 -32 -13z"/>
<path d="M855 1858 c-4 -10 -4 -26 0 -35 8 -17 8 -17 12 0 3 9 3 25 0 35 -4
16 -4 16 -12 0z"/>
<path d="M4480 1861 c0 -6 5 -13 10 -16 6 -3 10 1 10 9 0 9 -4 16 -10 16 -5 0
-10 -4 -10 -9z"/>
<path d="M410 1745 c-10 -19 -11 -30 -2 -50 6 -14 16 -25 22 -25 5 0 10 -4 10
-9 0 -5 -16 -9 -36 -9 -41 0 -49 -5 -38 -24 5 -7 9 -19 10 -25 5 -30 30 -74
46 -79 25 -7 23 -50 -3 -67 -13 -9 -16 -17 -10 -22 12 -7 31 2 31 15 0 14 54
70 67 70 7 0 15 -11 19 -25 3 -14 10 -25 14 -25 16 0 32 30 25 47 -6 17 -7 17
-21 -1 -8 -11 -14 -15 -14 -9 0 6 -3 18 -6 27 -4 11 -1 16 11 16 14 0 16 6 12
29 -5 25 -2 31 23 41 41 17 37 35 -10 49 -22 7 -38 16 -36 20 3 4 -14 8 -37 7
-41 -1 -42 0 -42 33 0 42 -17 50 -35 16z m90 -119 c0 -2 3 -11 6 -20 4 -12 0
-16 -15 -16 -14 0 -21 6 -21 20 0 11 7 20 15 20 8 0 15 -2 15 -4z"/>
<path d="M3655 1720 c-3 -5 -1 -10 4 -10 6 0 11 5 11 10 0 6 -2 10 -4 10 -3 0
-8 -4 -11 -10z"/>
<path d="M241 1676 c-7 -8 -23 -17 -36 -20 -23 -6 -36 -26 -17 -26 12 0 32
-62 32 -102 0 -21 10 -50 24 -70 13 -19 28 -48 34 -64 7 -19 11 -23 11 -11 1
27 43 58 59 45 9 -8 12 -6 12 6 0 9 -4 16 -10 16 -5 0 -10 5 -10 10 0 6 6 10
13 10 6 0 19 4 27 10 12 7 12 12 0 34 -16 30 -40 34 -40 8 0 -28 -10 -33 -40
-17 -43 22 -68 119 -35 131 19 8 20 54 1 54 -7 0 -19 -6 -25 -14z"/>
<path d="M665 1630 c-4 -7 -19 -10 -33 -7 -35 7 -57 -15 -31 -31 25 -16 24
-46 -3 -78 -22 -25 -26 -37 -11 -31 9 3 21 -53 15 -70 -2 -7 -13 -13 -23 -13
-11 0 -22 -7 -25 -15 -4 -8 -12 -15 -19 -15 -7 0 -16 -6 -18 -12 -4 -10 -6
-10 -6 0 -1 14 -31 17 -31 2 0 -5 -7 -10 -15 -10 -8 0 -15 5 -15 11 0 6 -8 1
-18 -12 -24 -29 -101 -42 -119 -19 -17 21 -5 -126 13 -162 8 -15 14 -40 14
-55 0 -22 2 -25 10 -13 8 11 9 8 4 -12 -6 -28 6 -48 36 -62 9 -3 5 -4 -7 -2
-27 5 -28 -2 -8 -30 8 -12 12 -24 8 -27 -3 -4 1 -17 10 -30 15 -23 18 -24 67
-14 32 6 55 6 58 1 8 -10 58 -34 72 -34 5 0 10 12 12 28 2 15 8 26 14 25 6 -1
11 12 12 30 0 17 6 33 11 35 14 5 14 32 1 32 -6 0 -9 3 -9 8 3 18 -2 26 -10
14 -6 -10 -10 -7 -13 11 -3 14 -1 32 3 39 6 9 9 5 9 -11 0 -16 4 -21 9 -15 5
5 12 45 14 89 6 84 8 95 38 160 25 56 34 95 20 95 -6 0 -11 -5 -11 -11 0 -5
-5 -7 -10 -4 -6 4 -8 21 -5 39 6 28 3 34 -20 44 -25 12 -26 14 -12 35 8 12 24
22 35 22 11 1 26 6 34 13 12 10 40 18 71 21 4 1 7 9 6 19 0 10 -3 12 -6 5 -2
-7 -9 -13 -14 -13 -6 0 -7 5 -4 10 3 6 -5 10 -18 10 -14 0 -28 -7 -31 -16 -3
-8 -10 -12 -16 -9 -6 4 -8 10 -5 15 3 4 -2 13 -9 19 -11 9 -16 9 -21 1z m-115
-432 c0 -7 -5 -6 -13 1 -8 6 -17 8 -21 4 -4 -4 -4 0 0 10 5 14 9 15 20 6 8 -6
14 -16 14 -21z"/>
<path d="M712 1510 c0 -14 2 -19 5 -12 2 6 2 18 0 25 -3 6 -5 1 -5 -13z"/>
<path d="M140 1181 c0 -5 -11 -22 -24 -36 -19 -20 -35 -27 -70 -28 -25 -1 -46
-3 -46 -5 0 -9 28 -49 43 -60 27 -20 57 -87 57 -127 0 -31 3 -35 26 -35 37 0
75 -46 72 -84 -2 -17 2 -31 10 -33 6 -3 12 3 12 12 0 26 25 46 40 32 10 -10
11 -7 6 13 -3 14 -6 29 -6 33 0 5 -5 5 -11 1 -8 -4 -9 3 -5 23 8 37 -19 156
-47 202 -11 18 -23 47 -26 64 -6 28 -31 51 -31 28z"/>
<path d="M4140 740 c0 -5 5 -10 10 -10 6 0 10 5 10 10 0 6 -4 10 -10 10 -5 0
-10 -4 -10 -10z"/>
<path d="M525 710 c-20 -32 -9 -160 14 -160 19 0 33 31 27 60 -4 21 -1 32 8
36 17 7 14 53 -5 65 -18 12 -36 11 -44 -1z m45 -50 c0 -5 -7 -10 -16 -10 -8 0
-12 5 -9 10 3 6 10 10 16 10 5 0 9 -4 9 -10z"/>
<path d="M560 540 c0 -5 5 -10 11 -10 5 0 7 5 4 10 -3 6 -8 10 -11 10 -2 0 -4
-4 -4 -10z"/>
<path d="M540 500 c0 -5 5 -10 10 -10 6 0 10 5 10 10 0 6 -4 10 -10 10 -5 0
-10 -4 -10 -10z"/>
<path d="M570 475 c0 -8 -5 -15 -10 -15 -6 0 -8 -16 -4 -42 7 -46 24 -76 24
-42 0 12 7 21 15 21 8 0 15 -8 15 -18 0 -12 5 -16 15 -13 16 7 21 54 5 54 -5
0 -7 -8 -4 -17 5 -15 4 -16 -5 -3 -6 8 -11 24 -11 35 -1 35 -40 74 -40 40z"/>
<path d="M4330 429 c0 -16 -4 -19 -21 -14 -19 6 -20 5 -8 -8 13 -14 16 -13 32
0 19 17 23 43 7 43 -5 0 -10 -9 -10 -21z"/>
<path d="M349 411 c-21 -22 -29 -45 -19 -61 5 -8 -4 -30 -24 -59 -18 -25 -35
-53 -38 -62 -7 -19 28 -53 47 -45 7 2 18 -1 24 -7 8 -8 11 -7 11 6 0 11 5 14
17 10 13 -5 15 -2 9 18 -10 32 -8 73 4 77 14 5 12 29 -2 35 -10 4 -10 6 0 6 8
1 10 6 5 14 -4 6 -10 28 -13 48 -5 33 -6 34 -21 20z"/>
<path d="M600 330 c0 -5 5 -10 11 -10 5 0 7 5 4 10 -3 6 -8 10 -11 10 -2 0 -4
-4 -4 -10z"/>
<path d="M2286 282 c-8 -13 28 -22 45 -11 9 6 10 9 2 9 -6 0 -18 3 -26 6 -8 3
-18 1 -21 -4z"/>
<path d="M2357 263 c-9 -8 25 -33 36 -26 4 3 3 11 -4 19 -13 15 -22 18 -32 7z"/>
<path d="M2243 235 c-8 -9 -9 -16 -3 -20 15 -10 12 -35 -5 -35 -8 0 -15 7 -15
16 0 14 -3 14 -15 4 -22 -18 -18 -27 14 -33 44 -9 101 10 101 33 0 11 7 20 15
20 8 0 15 -7 15 -15 0 -8 -4 -15 -10 -15 -5 0 -10 -9 -10 -20 0 -22 -28 -60
-45 -60 -5 0 -32 12 -59 26 -26 14 -49 24 -50 22 -2 -2 -8 -17 -13 -34 -13
-39 3 -67 29 -50 24 14 37 -3 15 -19 -13 -9 -15 -15 -7 -20 7 -4 17 -2 23 4
16 16 27 14 27 -5 0 -14 3 -14 16 -3 9 7 14 22 11 35 -3 15 0 21 10 17 7 -3
11 -9 8 -13 -7 -11 5 -40 16 -40 5 0 9 7 9 15 0 9 9 15 23 15 19 0 22 5 22 42
0 39 2 43 24 40 21 -2 22 1 16 25 -7 29 -60 83 -81 83 -15 0 -28 -19 -29 -39
0 -8 -6 -16 -13 -19 -9 -3 -12 4 -10 23 3 32 -11 41 -29 20z m137 -60 c0 -8
-4 -15 -10 -15 -5 0 -10 7 -10 15 0 8 5 15 10 15 6 0 10 -7 10 -15z m-150 -65
c0 -5 -4 -10 -9 -10 -6 0 -13 5 -16 10 -3 6 1 10 9 10 9 0 16 -4 16 -10z"/>
<path d="M2410 207 c0 -8 7 -21 16 -28 14 -11 15 -10 12 11 -3 26 -28 41 -28
17z"/>
<path d="M385 180 c-3 -5 3 -10 14 -10 12 0 21 5 21 10 0 6 -6 10 -14 10 -8 0
-18 -4 -21 -10z"/>
<path d="M2420 129 c0 -24 23 -21 28 4 2 10 -3 17 -12 17 -10 0 -16 -9 -16
-21z"/>
<path d="M4280 119 c0 -5 5 -7 10 -4 6 3 10 8 10 11 0 2 -4 4 -10 4 -5 0 -10
-5 -10 -11z"/>
<path d="M453 63 c-7 -3 -13 -11 -13 -18 0 -7 -7 -16 -16 -19 -24 -9 -6 -26
29 -26 27 0 33 4 35 24 2 26 -16 46 -35 39z"/>
<path d="M2162 18 c3 -7 15 -15 28 -16 21 -3 22 -2 11 12 -16 19 -44 21 -39 4z"/>
</g>
</svg>
